<svg id="svg" version="1.1" xmlns="http://www.w3.org/2000/svg" xmlns:xlink="http://www.w3.org/1999/xlink" width="400" height="325.3424657534247" viewBox="0, 0, 400,325.3424657534247"><g id="svgg"><path id="path0" d="M255.384 11.608 C 255.264 11.728,255.167 22.630,255.167 35.837 C 255.167 51.493,255.054 59.918,254.841 60.049 C 254.239 60.421,254.502 61.188,255.232 61.188 C 255.789 61.188,255.861 61.275,255.557 61.579 C 254.899 62.237,255.082 62.913,255.865 62.709 C 256.337 62.585,256.456 62.633,256.232 62.857 C 255.632 63.457,256.510 64.817,257.364 64.609 C 257.776 64.508,258.096 64.581,258.096 64.777 C 258.096 64.967,258.456 65.483,258.895 65.922 L 259.694 66.721 285.116 66.721 L 310.538 66.721 310.465 62.815 C 310.425 60.667,310.269 58.910,310.119 58.910 C 309.968 58.910,309.845 58.771,309.845 58.601 C 309.845 58.234,293.868 42.311,293.500 42.311 C 293.360 42.311,293.282 42.201,293.325 42.067 C 293.424 41.756,273.458 21.806,273.047 21.806 C 272.879 21.806,272.742 21.646,272.742 21.450 C 272.742 20.776,263.824 12.326,263.267 12.472 C 262.975 12.548,262.539 12.336,262.297 12.001 C 261.851 11.382,255.945 11.047,255.384 11.608 M254.516 122.701 C 254.516 122.880,254.282 123.027,253.996 123.027 C 253.709 123.027,253.065 123.466,252.563 124.003 C 252.061 124.540,251.495 124.980,251.304 124.980 C 251.112 124.980,251.041 125.201,251.145 125.472 C 251.280 125.824,251.184 125.906,250.809 125.762 C 250.519 125.651,250.285 125.724,250.285 125.926 C 250.285 126.382,245.535 131.164,245.083 131.164 C 244.901 131.164,244.752 131.373,244.752 131.630 C 244.752 131.886,244.459 132.189,244.101 132.303 C 243.743 132.416,243.450 132.668,243.450 132.862 C 243.450 133.304,238.692 137.998,238.245 137.998 C 238.065 137.998,237.917 138.227,237.917 138.506 C 237.917 138.785,237.771 138.923,237.592 138.812 C 237.413 138.701,237.266 138.923,237.266 139.304 C 237.266 140.104,236.553 140.928,235.860 140.928 C 235.597 140.928,235.297 141.151,235.192 141.424 C 235.059 141.772,234.757 141.858,234.181 141.714 C 233.671 141.586,233.360 141.645,233.360 141.872 C 233.360 142.138,223.897 142.201,197.966 142.108 C 160.041 141.972,161.107 141.989,161.107 141.525 C 161.107 141.354,160.960 141.305,160.781 141.416 C 160.601 141.527,160.456 141.293,160.456 140.893 C 160.456 140.494,160.360 140.263,160.244 140.380 C 160.128 140.496,159.695 140.228,159.283 139.783 C 158.871 139.339,158.404 138.975,158.245 138.975 C 158.086 138.975,157.790 138.609,157.586 138.161 C 157.382 137.714,156.997 137.347,156.730 137.347 C 156.463 137.347,156.311 137.164,156.391 136.941 C 156.530 136.555,154.571 134.093,154.126 134.093 C 153.883 134.093,152.319 132.572,152.319 132.336 C 152.319 132.113,148.093 127.909,147.870 127.909 C 147.578 127.909,145.484 125.534,145.484 125.204 C 145.484 125.039,145.191 124.980,144.833 125.074 C 144.410 125.185,144.182 125.084,144.182 124.786 C 144.182 124.263,143.345 124.166,143.043 124.654 C 142.719 125.179,141.902 125.039,142.111 124.494 C 142.221 124.206,142.060 123.918,141.713 123.785 C 141.371 123.654,141.076 123.720,141.001 123.945 C 140.771 124.635,139.300 124.405,139.300 123.678 C 139.300 123.244,139.083 123.027,138.649 123.027 C 138.291 123.027,137.998 123.173,137.998 123.352 C 137.998 123.800,65.023 123.803,64.576 123.355 C 64.168 122.948,61.165 123.881,59.915 124.803 C 59.662 124.990,59.150 125.142,58.776 125.142 C 58.319 125.142,58.062 125.382,57.992 125.875 C 57.913 126.428,57.673 126.607,57.006 126.607 C 56.498 126.607,55.926 126.883,55.655 127.258 C 55.397 127.616,54.962 127.914,54.688 127.919 C 53.966 127.934,53.051 128.711,53.051 129.310 C 53.051 129.593,52.795 130.018,52.482 130.254 C 51.728 130.822,51.098 131.974,51.098 132.786 C 51.098 133.147,50.952 133.442,50.773 133.442 C 50.594 133.442,50.448 133.735,50.448 134.093 C 50.448 134.527,50.231 134.744,49.797 134.744 C 49.290 134.744,49.146 134.961,49.146 135.720 C 49.146 136.257,49.292 136.697,49.471 136.697 C 49.684 136.697,49.797 142.332,49.797 152.951 C 49.797 163.436,49.912 169.276,50.122 169.406 C 50.301 169.517,50.448 169.891,50.448 170.239 C 50.448 170.586,50.594 170.871,50.773 170.871 C 50.952 170.871,51.098 171.164,51.098 171.522 C 51.098 171.880,51.235 172.172,51.401 172.172 C 51.568 172.172,51.751 172.502,51.808 172.905 C 51.880 173.412,52.413 173.886,53.539 174.447 C 54.434 174.892,55.404 175.514,55.693 175.830 C 55.983 176.145,56.426 176.404,56.679 176.404 C 56.932 176.404,57.350 176.697,57.608 177.055 C 57.866 177.413,58.338 177.705,58.656 177.705 C 58.975 177.705,59.235 177.852,59.235 178.031 C 59.235 178.210,59.499 178.356,59.821 178.356 C 60.143 178.356,60.555 178.504,60.735 178.685 C 60.916 178.865,61.714 179.048,62.509 179.092 C 63.332 179.136,64.226 179.415,64.585 179.740 C 65.169 180.266,65.960 180.464,66.965 180.333 C 67.289 180.291,67.372 190.106,67.372 228.464 C 67.372 260.370,67.262 276.648,67.046 276.648 C 66.534 276.648,66.667 277.624,67.207 277.831 C 67.535 277.957,67.629 278.269,67.498 278.794 C 67.362 279.336,67.461 279.632,67.826 279.771 C 68.139 279.892,68.348 280.349,68.348 280.914 C 68.348 281.875,69.111 282.251,69.435 281.448 C 69.533 281.205,69.609 281.271,69.624 281.611 C 69.639 281.924,69.504 282.181,69.325 282.181 C 69.146 282.181,68.999 282.620,68.999 283.157 C 68.999 283.694,69.146 284.133,69.325 284.133 C 69.504 284.133,69.650 284.719,69.650 285.435 C 69.650 286.151,69.797 286.737,69.976 286.737 C 70.155 286.737,70.301 287.177,70.301 287.714 C 70.301 288.251,70.448 288.690,70.627 288.690 C 70.806 288.690,70.952 288.983,70.952 289.341 C 70.952 289.699,71.098 289.992,71.277 289.992 C 71.456 289.992,71.603 290.569,71.603 291.275 C 71.603 291.980,71.749 292.648,71.928 292.758 C 72.107 292.869,72.254 293.228,72.254 293.556 C 72.254 293.885,72.462 294.233,72.717 294.331 C 72.972 294.429,73.429 295.031,73.731 295.668 C 74.033 296.305,74.484 296.827,74.732 296.827 C 74.980 296.827,75.183 297.055,75.183 297.334 C 75.183 297.613,75.330 297.751,75.509 297.640 C 75.688 297.530,75.834 297.632,75.834 297.868 C 75.834 298.104,76.127 298.480,76.485 298.704 C 76.843 298.928,77.136 299.298,77.136 299.527 C 77.136 300.143,80.159 303.011,80.809 303.011 C 81.116 303.011,81.367 303.167,81.367 303.359 C 81.367 303.811,82.196 304.638,82.648 304.638 C 82.842 304.638,83.427 305.018,83.949 305.483 C 84.993 306.414,87.737 307.893,88.420 307.893 C 88.658 307.893,88.853 308.039,88.853 308.218 C 88.853 308.397,89.130 308.544,89.469 308.544 C 89.808 308.544,90.165 308.752,90.263 309.006 C 90.367 309.279,90.701 309.401,91.074 309.304 C 91.423 309.212,91.807 309.297,91.927 309.492 C 92.047 309.686,92.568 309.845,93.084 309.845 C 93.600 309.845,94.110 309.988,94.218 310.162 C 94.682 310.913,96.724 311.592,97.348 311.202 C 98.150 310.701,297.152 310.646,297.152 311.147 C 297.152 311.326,297.811 311.473,298.617 311.473 C 299.422 311.473,300.081 311.326,300.081 311.147 C 300.081 310.968,300.672 310.822,301.393 310.822 C 302.281 310.822,302.768 310.658,302.900 310.315 C 303.007 310.036,303.301 309.887,303.553 309.984 C 303.805 310.081,304.095 309.943,304.197 309.677 C 304.300 309.408,304.789 309.194,305.304 309.194 C 305.812 309.194,306.317 309.048,306.428 308.869 C 306.539 308.690,306.913 308.544,307.261 308.544 C 307.608 308.544,307.893 308.397,307.893 308.218 C 307.893 308.039,308.153 307.893,308.472 307.893 C 308.790 307.893,309.262 307.600,309.520 307.242 C 309.778 306.884,310.250 306.591,310.568 306.591 C 310.887 306.591,311.147 306.444,311.147 306.265 C 311.147 306.086,311.344 305.940,311.585 305.940 C 312.207 305.940,313.934 305.039,314.408 304.468 C 314.627 304.204,314.978 303.987,315.187 303.987 C 315.631 303.987,317.782 301.724,318.082 300.941 C 318.195 300.647,318.475 300.406,318.704 300.406 C 319.243 300.405,324.166 295.340,324.166 294.787 C 324.166 294.556,324.459 294.156,324.817 293.897 C 325.175 293.639,325.468 293.183,325.468 292.884 C 325.468 292.585,325.697 292.252,325.977 292.144 C 326.257 292.037,326.445 291.692,326.395 291.377 C 326.291 290.725,327.128 288.690,327.500 288.690 C 327.635 288.690,327.746 288.406,327.746 288.058 C 327.746 287.711,327.893 287.336,328.072 287.225 C 328.251 287.115,328.397 286.667,328.397 286.230 C 328.397 285.793,328.544 285.435,328.723 285.435 C 328.902 285.435,329.048 284.776,329.048 283.971 C 329.048 283.165,329.194 282.506,329.373 282.506 C 329.552 282.506,329.699 281.782,329.699 280.898 C 329.699 280.013,329.845 279.199,330.024 279.089 C 330.203 278.978,330.350 278.384,330.350 277.768 C 330.350 277.152,330.203 276.648,330.024 276.648 C 329.809 276.648,329.699 260.212,329.699 227.990 L 329.699 179.333 331.896 179.347 C 333.104 179.355,334.727 179.484,335.501 179.633 C 336.589 179.843,336.949 179.803,337.082 179.456 C 337.177 179.209,337.532 179.007,337.870 179.007 C 338.209 179.007,338.487 178.861,338.487 178.682 C 338.487 178.503,338.771 178.356,339.118 178.356 C 339.466 178.356,339.841 178.210,339.951 178.031 C 340.062 177.852,340.420 177.705,340.746 177.705 C 341.073 177.705,341.416 177.413,341.510 177.055 C 341.604 176.697,341.950 176.399,342.280 176.394 C 343.074 176.382,345.647 174.073,345.647 173.373 C 345.647 173.071,345.793 172.823,345.972 172.823 C 346.151 172.823,346.298 172.626,346.298 172.385 C 346.298 171.682,347.305 169.862,347.798 169.673 C 348.047 169.577,348.251 169.084,348.251 168.577 C 348.251 168.069,348.397 167.564,348.576 167.453 C 349.006 167.188,348.996 165.109,348.564 164.842 C 348.135 164.577,348.178 139.300,348.607 139.300 C 349.009 139.300,348.982 137.761,348.576 137.510 C 348.397 137.400,348.251 136.732,348.251 136.026 C 348.251 135.321,348.104 134.744,347.925 134.744 C 347.746 134.744,347.600 134.451,347.600 134.093 C 347.600 133.639,347.383 133.442,346.884 133.442 C 346.327 133.442,346.254 133.355,346.558 133.051 C 346.990 132.619,347.093 131.767,346.698 131.896 C 346.561 131.941,346.094 131.648,345.661 131.245 C 345.228 130.842,344.748 130.513,344.594 130.513 C 344.191 130.513,342.718 128.979,342.718 128.560 C 342.718 128.063,341.209 126.607,340.694 126.607 C 340.460 126.607,339.993 126.241,339.657 125.793 C 339.321 125.346,338.774 124.980,338.441 124.980 C 338.108 124.980,337.836 124.833,337.836 124.654 C 337.836 124.475,337.551 124.329,337.204 124.329 C 336.856 124.329,336.496 124.205,336.402 124.053 C 336.308 123.902,335.753 123.764,335.169 123.747 C 334.584 123.731,334.054 123.562,333.991 123.372 C 333.928 123.182,333.229 123.027,332.438 123.027 C 331.648 123.027,331.001 122.880,331.001 122.701 C 331.001 122.522,330.561 122.376,330.024 122.376 C 329.487 122.376,329.048 122.522,329.048 122.701 C 329.048 122.916,316.741 123.027,292.778 123.027 C 268.948 123.027,256.438 122.915,256.306 122.701 C 256.195 122.522,255.747 122.376,255.310 122.376 C 254.873 122.376,254.516 122.522,254.516 122.701 M110.965 181.738 C 111.194 182.166,111.732 182.703,112.160 182.932 C 112.934 183.346,112.937 183.376,112.937 188.964 L 112.937 194.580 111.976 195.542 C 111.447 196.070,110.934 196.424,110.836 196.326 C 110.739 196.228,110.659 196.393,110.659 196.691 C 110.659 197.401,98.949 197.536,98.933 196.827 C 98.928 196.603,98.420 196.054,97.803 195.606 L 96.682 194.793 96.673 189.341 C 96.668 186.343,96.774 183.886,96.908 183.882 C 97.320 183.869,99.593 181.698,99.593 181.318 C 99.593 180.464,110.500 180.868,110.965 181.738 M260.700 181.237 C 260.700 181.390,261.139 181.974,261.676 182.536 L 262.653 183.558 262.653 189.176 L 262.653 194.795 261.676 195.716 C 261.139 196.223,260.700 196.772,260.700 196.936 C 260.700 197.104,258.232 197.234,255.004 197.234 L 249.308 197.234 248.006 195.892 L 246.705 194.551 246.705 189.220 C 246.705 185.822,246.825 183.889,247.036 183.889 C 247.443 183.889,249.634 181.670,249.634 181.258 C 249.634 181.090,252.042 180.960,255.167 180.960 C 258.210 180.960,260.700 181.085,260.700 181.237 M139.283 181.692 C 139.634 182.018,139.675 182.018,139.492 181.692 C 139.313 181.376,140.206 181.286,143.512 181.286 C 147.129 181.286,147.762 181.361,147.762 181.789 C 147.762 182.519,149.335 183.980,149.892 183.766 C 150.297 183.611,150.366 184.468,150.366 189.595 C 150.366 195.389,150.343 195.606,149.715 195.606 C 149.343 195.606,149.064 195.823,149.064 196.114 C 149.064 196.393,148.918 196.530,148.739 196.420 C 148.560 196.309,148.413 196.456,148.413 196.745 C 148.413 197.035,148.267 197.181,148.088 197.071 C 147.909 196.960,147.762 197.159,147.762 197.513 C 147.762 197.866,147.945 198.222,148.169 198.304 C 148.393 198.385,145.720 198.434,142.230 198.412 C 138.145 198.387,135.883 198.254,135.883 198.040 C 135.883 197.856,135.558 197.358,135.162 196.932 C 134.765 196.507,134.531 196.013,134.641 195.835 C 134.766 195.633,134.518 195.592,133.979 195.728 L 133.116 195.944 133.116 190.242 L 133.116 184.540 133.984 184.540 C 134.462 184.540,134.762 184.450,134.651 184.339 C 134.399 184.087,135.220 183.238,135.716 183.238 C 135.918 183.238,135.993 183.092,135.883 182.913 C 135.772 182.734,135.910 182.587,136.189 182.587 C 136.480 182.587,136.697 182.309,136.697 181.937 C 136.697 181.170,138.534 180.997,139.283 181.692 M185.450 181.728 C 185.397 181.971,185.830 182.615,186.412 183.160 L 187.469 184.151 187.469 189.797 L 187.468 195.443 186.174 196.662 L 184.879 197.880 180.397 197.869 C 177.932 197.863,175.425 197.870,174.825 197.884 C 173.788 197.908,172.174 196.647,172.173 195.812 C 172.173 195.657,171.880 195.607,171.522 195.700 C 170.889 195.866,170.871 195.710,170.871 190.053 C 170.871 185.017,170.936 184.260,171.359 184.422 C 171.653 184.535,172.222 184.208,172.791 183.599 C 173.310 183.042,173.883 182.587,174.063 182.587 C 174.243 182.587,174.313 182.295,174.220 181.937 C 174.054 181.304,174.210 181.286,179.797 181.286 C 184.469 181.286,185.527 181.368,185.450 181.728 M176.512 182.030 C 176.512 182.260,176.764 182.448,177.072 182.448 C 177.394 182.448,177.563 182.271,177.471 182.030 C 177.383 181.799,177.131 181.611,176.911 181.611 C 176.692 181.611,176.512 181.799,176.512 182.030 M224.003 183.089 L 225.224 184.224 225.224 189.915 C 225.224 195.010,225.167 195.606,224.681 195.606 C 224.383 195.606,224.227 195.694,224.334 195.801 C 224.441 195.909,224.094 196.421,223.563 196.940 L 222.598 197.884 217.080 197.884 L 211.563 197.884 210.428 196.664 L 209.293 195.443 209.285 190.135 L 209.276 184.828 210.631 183.382 L 211.985 181.937 217.384 181.945 L 222.783 181.954 224.003 183.089 M299.156 182.913 C 299.718 183.450,300.303 183.889,300.455 183.889 C 300.608 183.889,300.732 186.526,300.732 189.748 C 300.732 194.738,300.660 195.606,300.244 195.606 C 299.976 195.606,299.756 195.746,299.756 195.917 C 299.756 197.484,298.285 197.884,292.530 197.884 L 286.961 197.884 285.710 196.608 L 284.459 195.332 284.459 190.067 L 284.459 184.801 285.975 183.369 L 287.492 181.937 292.813 181.937 L 298.134 181.937 299.156 182.913 M243.124 219.327 L 244.426 220.591 244.426 226.325 C 244.426 230.274,244.315 232.059,244.069 232.059 C 243.872 232.059,243.301 232.498,242.799 233.035 L 241.887 234.011 236.290 234.011 L 230.692 234.011 229.780 233.035 C 229.279 232.498,228.707 232.059,228.511 232.059 C 228.265 232.059,228.153 230.388,228.153 226.740 L 228.153 221.422 229.699 219.774 L 231.245 218.126 236.533 218.095 L 241.822 218.063 243.124 219.327 M130.149 220.055 L 131.489 221.395 131.489 227.052 C 131.489 230.164,131.364 232.710,131.212 232.710 C 131.059 232.710,130.475 233.149,129.913 233.686 L 128.891 234.662 123.256 234.662 L 117.621 234.662 116.418 233.561 L 115.216 232.459 115.216 227.051 C 115.216 222.221,115.274 221.644,115.758 221.644 C 116.056 221.644,116.223 221.566,116.127 221.471 C 116.032 221.375,116.484 220.736,117.131 220.049 L 118.308 218.801 123.558 218.758 L 128.809 218.714 130.149 220.055 M166.965 219.222 C 166.965 219.501,167.089 219.652,167.241 219.558 C 167.393 219.464,167.711 219.749,167.947 220.190 C 168.184 220.632,168.499 220.993,168.647 220.993 C 168.796 220.993,168.918 223.564,168.918 226.706 L 168.918 232.419 167.943 233.459 C 167.407 234.032,166.968 234.573,166.967 234.662 C 166.966 234.752,164.311 234.782,161.066 234.729 L 155.166 234.633 154.068 233.503 L 152.970 232.372 152.970 227.166 L 152.970 221.960 154.516 220.355 L 156.062 218.749 161.513 218.732 C 166.242 218.717,166.965 218.782,166.965 219.222 M205.396 219.966 L 206.672 221.217 206.672 226.801 L 206.672 232.385 205.465 233.524 L 204.258 234.662 198.548 234.662 L 192.838 234.662 191.916 233.686 C 191.409 233.149,190.860 232.710,190.697 232.710 C 190.206 232.710,190.314 221.648,190.806 221.624 C 191.029 221.613,191.725 220.963,192.352 220.179 L 193.491 218.754 198.805 218.734 L 204.119 218.714 205.396 219.966 M280.740 219.935 L 281.840 221.155 281.848 226.778 L 281.855 232.401 280.826 233.532 L 279.798 234.662 274.131 234.662 C 270.034 234.662,268.351 234.550,268.053 234.255 C 267.827 234.032,267.252 233.558,266.775 233.202 L 265.907 232.555 265.907 227.266 L 265.907 221.978 267.453 220.383 L 268.999 218.788 274.320 218.751 L 279.641 218.714 280.740 219.935 M259.398 256.143 C 259.398 256.322,259.637 256.469,259.930 256.469 C 260.470 256.469,262.001 258.012,262.001 258.557 C 262.001 258.721,262.100 258.757,262.221 258.636 C 262.342 258.515,262.707 258.820,263.033 259.314 C 263.841 260.539,263.932 268.976,263.141 269.280 C 262.872 269.383,262.653 269.625,262.653 269.818 C 262.653 270.011,262.010 270.821,261.224 271.618 L 259.795 273.067 198.704 273.070 L 137.614 273.073 136.699 272.094 C 136.196 271.555,135.686 271.115,135.566 271.115 C 135.100 271.115,134.418 270.151,134.418 269.491 C 134.418 269.110,134.272 268.889,134.093 268.999 C 133.881 269.130,133.767 267.502,133.767 264.353 L 133.767 259.506 135.325 258.069 C 136.182 257.278,137.171 256.457,137.522 256.244 C 138.358 255.737,259.398 255.637,259.398 256.143 " stroke="none" fill="#fcfcfc" fill-rule="evenodd"></path><path id="path1" d="" stroke="none" fill="#100fcfc" fill-rule="evenodd"></path><path id="path2" d="" stroke="none" fill="#100fcfc" fill-rule="evenodd"></path><path id="path3" d="" stroke="none" fill="#100fcfc" fill-rule="evenodd"></path><path id="path4" d="" stroke="none" fill="#100fcfc" fill-rule="evenodd"></path></g></svg>